<svg width="16" height="18" viewBox="0 0 16 18" fill="none" xmlns="http://www.w3.org/2000/svg">
<path d="M12.9964 2.22983C11.5585 0.791898 9.64663 0 7.61312 0C5.5796 0 3.66773 0.791898 2.22983 2.22983C0.791898 3.6678 0 5.5796 0 7.61308C0 11.7268 3.88963 15.1484 5.97929 16.9866C6.26968 17.242 6.52046 17.4626 6.72025 17.6492C6.97056 17.8831 7.29186 18 7.61308 18C7.93437 18 8.2556 17.8831 8.50595 17.6492C8.70574 17.4626 8.95651 17.242 9.2469 16.9866C11.3366 15.1484 15.2262 11.7268 15.2262 7.61308C15.2262 5.5796 14.4343 3.6678 12.9964 2.22983ZM8.55046 16.1949C8.2537 16.456 7.99745 16.6814 7.78616 16.8788C7.68909 16.9694 7.53707 16.9694 7.43997 16.8788C7.22872 16.6814 6.97243 16.4559 6.67567 16.1949C4.71113 14.4668 1.05434 11.25 1.05434 7.61312C1.05434 3.99665 3.99654 1.05445 7.61305 1.05445C11.2295 1.05445 14.1717 3.99665 14.1717 7.61312C14.1718 11.25 10.515 14.4668 8.55046 16.1949Z" fill="#191A1C"/>
<path d="M7.61331 3.97046C5.76335 3.97046 4.2583 5.47547 4.2583 7.32544C4.2583 9.1754 5.76335 10.6804 7.61331 10.6804C9.46327 10.6804 10.9683 9.1754 10.9683 7.32544C10.9683 5.47547 9.46327 3.97046 7.61331 3.97046ZM7.61331 9.62597C6.34476 9.62597 5.31271 8.59392 5.31271 7.3254C5.31271 6.05689 6.34476 5.02484 7.61331 5.02484C8.88186 5.02484 9.91387 6.05689 9.91387 7.3254C9.91387 8.59392 8.88186 9.62597 7.61331 9.62597Z" fill="#191A1C"/>
</svg>
