<svg width="21" height="21" viewBox="0 0 21 21" fill="none" xmlns="http://www.w3.org/2000/svg">
<path d="M19.0156 13.4768C18.3841 12.845 17.6888 12.2073 16.8856 11.8199C15.6854 11.2415 14.5403 11.4073 13.6609 12.2867C13.2607 12.6869 12.7101 13.476 12.3932 13.8641C11.5759 13.7274 9.94291 12.3504 9.29455 11.7043C8.64867 11.0559 7.27278 9.4226 7.13606 8.60695C7.52191 8.29181 8.31369 7.73894 8.71368 7.33918C9.59305 6.45976 9.7588 5.31433 9.18041 4.11431C8.79308 3.31082 8.15538 2.61577 7.52414 1.98449C6.23833 0.671562 4.25502 0.574786 2.54317 2.28698C1.2638 3.56616 0.124141 5.93767 1.95832 9.97124C3.04365 12.3574 4.79272 14.4679 5.65497 15.3388L5.66167 15.3455C6.53261 16.2081 8.64296 17.9573 11.029 19.0424C13.7237 20.268 16.6119 20.5588 18.7131 18.4578C20.4507 16.7198 20.3044 14.7388 19.0156 13.4768ZM17.3655 17.1101C16.1246 18.3511 14.2582 18.4176 11.8178 17.3076C9.67543 16.3332 7.73555 14.7165 7.00579 13.9946C6.28398 13.2646 4.66741 11.3249 3.693 9.18239C2.58311 6.7419 2.64961 4.87536 3.89051 3.6344C4.61481 2.91007 5.44853 2.58872 6.16265 3.31801L6.17629 3.33191C7.8678 5.02351 7.7477 5.60987 7.36608 5.99151C7.02738 6.33023 6.02617 7.01014 5.70261 7.33372C4.94308 8.09304 5.08452 9.26925 6.1227 10.8293C6.74228 11.7606 7.56061 12.6643 7.9467 13.0515L7.94869 13.0537C8.33602 13.4398 9.23946 14.2582 10.1707 14.8778C11.7309 15.916 12.9068 16.0572 13.6661 15.2979C13.9899 14.9741 14.6696 13.9731 15.0083 13.6343C15.2663 13.3763 15.5206 13.2778 16.0578 13.5368C16.6807 13.8371 17.3474 14.5038 17.668 14.8242L17.6819 14.8378C18.4168 15.5577 18.09 16.3855 17.3655 17.1101Z" fill="#191A1C" stroke="#F3F5F3"/>
</svg>
