<svg width="18" height="18" viewBox="0 0 18 18" fill="none" xmlns="http://www.w3.org/2000/svg">
<path d="M12.1604 0.0251227C12.2863 0.0657368 12.3904 0.153275 12.4498 0.268483C12.5093 0.383692 12.5192 0.517136 12.4774 0.639465L11.9774 2.09756C11.9355 2.22002 11.8453 2.32128 11.7266 2.37906C11.6079 2.43685 11.4704 2.44643 11.3444 2.4057C11.2185 2.36497 11.1143 2.27726 11.0548 2.16186C10.9954 2.04647 10.9855 1.91284 11.0274 1.79039L11.5274 0.332294C11.5482 0.271702 11.5811 0.215687 11.6242 0.16745C11.6672 0.119214 11.7196 0.0797021 11.7784 0.0511742C11.8372 0.0226464 11.9012 0.00566193 11.9668 0.00119181C12.0323 -0.0032783 12.0981 0.00485364 12.1604 0.0251227ZM15.8574 1.80205C15.9039 1.75686 15.9408 1.70321 15.966 1.64417C15.9911 1.58513 16.0041 1.52185 16.0041 1.45794C16.0041 1.39403 15.9911 1.33075 15.966 1.27171C15.9408 1.21267 15.9039 1.15902 15.8574 1.11383C15.811 1.06864 15.7558 1.0328 15.695 1.00834C15.6343 0.983884 15.5692 0.971296 15.5034 0.971296C15.4377 0.971296 15.3726 0.983884 15.3119 1.00834C15.2511 1.0328 15.1959 1.06864 15.1494 1.11383L13.1494 3.05795C13.1029 3.10308 13.0661 3.15666 13.0409 3.21565C13.0157 3.27463 13.0027 3.33786 13.0027 3.40172C13.0026 3.53069 13.0552 3.65442 13.1489 3.74569C13.2427 3.83695 13.3699 3.88827 13.5026 3.88836C13.6353 3.88845 13.7626 3.83731 13.8564 3.74617L15.8564 1.80205H15.8574ZM5.60943 2.08492C5.74902 1.79943 5.95813 1.55133 6.21862 1.36213C6.47912 1.17292 6.78315 1.04831 7.10437 0.999092C7.42559 0.949876 7.75431 0.977539 8.06205 1.07968C8.36979 1.18183 8.64726 1.35537 8.87043 1.58528L15.4574 8.37027C15.6773 8.59665 15.8379 8.87103 15.926 9.17033C16.014 9.46963 16.0268 9.7851 15.9633 10.0902C15.8998 10.3953 15.7618 10.6812 15.561 10.9237C15.3602 11.1662 15.1025 11.3583 14.8094 11.4838L10.8724 13.1713C11.0184 13.6772 11.0419 14.2091 10.9412 14.7254C10.8405 15.2417 10.6183 15.7283 10.2919 16.1472C9.96557 16.5661 9.54394 16.9059 9.06002 17.1401C8.57609 17.3742 8.04299 17.4964 7.50243 17.4969C6.90664 17.4973 6.32065 17.3496 5.80001 17.0681C5.27937 16.7866 4.84133 16.3804 4.52742 15.8882L3.32742 16.4014C3.05175 16.5196 2.74586 16.5543 2.4496 16.5011C2.15334 16.4479 1.88043 16.3092 1.66642 16.103L0.444419 14.9258C0.223456 14.7131 0.0759869 14.4388 0.022419 14.1411C-0.031149 13.8433 0.0118337 13.5366 0.145419 13.2636L5.60943 2.08589V2.08492ZM5.45543 15.4896C5.78732 15.9502 6.27326 16.2846 6.83042 16.4359C7.38757 16.5872 7.98146 16.546 8.51086 16.3193C9.04026 16.0926 9.4724 15.6945 9.73363 15.1928C9.99485 14.6911 10.069 14.1168 9.94343 13.5679L5.45543 15.4896ZM15.0024 4.86015C14.8698 4.86015 14.7427 4.91136 14.6489 5.00251C14.5551 5.09366 14.5024 5.21728 14.5024 5.34619C14.5024 5.47509 14.5551 5.59871 14.6489 5.68986C14.7427 5.78101 14.8698 5.83222 15.0024 5.83222H16.5024C16.635 5.83222 16.7622 5.78101 16.856 5.68986C16.9498 5.59871 17.0024 5.47509 17.0024 5.34619C17.0024 5.21728 16.9498 5.09366 16.856 5.00251C16.7622 4.91136 16.635 4.86015 16.5024 4.86015H15.0024Z" fill="#FF5851"/>
</svg>
