<svg width="97" height="226" viewBox="0 0 97 226" fill="none" xmlns="http://www.w3.org/2000/svg">
<circle cx="48.5" cy="48.5" r="48.5" fill="#FF5851"/>
<path d="M72.6746 145.035C64.7833 132.01 56.0061 120.737 51.4762 115.177C50.87 114.432 49.9604 114 49.0003 114C48.0399 114 47.1306 114.432 46.5241 115.177C41.9944 120.739 33.2173 132.016 25.326 145.042C15.1565 161.83 10 175.709 10 186.295C10 207.799 27.4953 225.295 49 225.295C70.5047 225.295 88 207.799 88 186.295C88.0003 175.702 82.8444 161.821 72.6746 145.035ZM54.3519 210.93C52.0745 211.513 49.7107 211.807 47.3245 211.807C32.7543 211.807 20.9006 200.796 20.9006 187.261C20.9006 183.993 21.7628 180.175 23.4627 175.914C23.7498 175.194 24.568 174.783 25.3745 174.957C26.1804 175.131 26.7216 175.833 26.6386 176.597C26.5393 177.511 26.4887 178.404 26.4887 179.25C26.4887 193.98 38.3575 206.314 54.0967 207.94C54.88 208.021 55.4911 208.607 55.5535 209.337C55.6162 210.067 55.1116 210.736 54.3519 210.93Z" fill="#5FD7E3"/>
</svg>
