<?xml version="1.0" encoding="utf-8"?>
<!-- Generator: Adobe Illustrator 25.2.3, SVG Export Plug-In . SVG Version: 6.00 Build 0)  -->
<svg version="1.1" id="Layer_1" xmlns="http://www.w3.org/2000/svg" xmlns:xlink="http://www.w3.org/1999/xlink" x="0px" y="0px"
	 viewBox="0 0 332.6 332.6" style="enable-background:new 0 0 332.6 332.6;" xml:space="preserve">
<style type="text/css">
	.st0{fill:#EEEEEE;}
	.st1{fill:#C8C8C8;}
	.st2{fill:#FFFFFF;stroke:#FFFFFF;stroke-width:8;stroke-linecap:round;stroke-linejoin:round;stroke-miterlimit:10;}
</style>
<g id="XMLID_461_">
	<path id="XMLID_467_" class="st0" d="M284.1,200.1c0,73.2-52.7,132.5-117.8,132.5S48.5,273.3,48.5,200.1
		C48.5,142,122.8,44,153.4,6.2c6.6-8.2,19.2-8.2,25.8,0C209.8,44,284.1,142,284.1,200.1z"/>
	<path id="XMLID_468_" class="st1" d="M88.6,179.1c-3.9,0-7.2,2.7-8.1,6.5c-1.6,6.8-2,11.5-2,14.5c0,56.5,39.4,102.5,87.8,102.5
		s87.8-46,87.8-102.5c0-3-0.4-7.8-2-14.5c-0.9-3.8-4.3-6.5-8.1-6.5L88.6,179.1L88.6,179.1z"/>
	<g>
		<path class="st2" d="M142.8,211.4v54.9c0,8,8.7,13,15.6,9l46-26.8c6.8-4,6.9-13.7,0.2-17.8l-46-28.1
			C151.7,198.3,142.8,203.3,142.8,211.4z"/>
	</g>
</g>
</svg>
